# xmcd
#
# Track frame offsets: 
#        150
#        14273
#        25697
#        39488
#        50911
#        66473
#        81190
#        96024
#        109466
#        123793
#        135763
#        149659
#        162735
#        175511
#        188925
#        200148
#        214503
#        226515
#        239764
#        251603
#        263458
#        272928
#        284497
#        296961
#        309021
#        321668
#        335412
#
# Disc length: 4638 seconds
#
# Revision: 0
# Processed by: cddbd v1.5.2PL0 Copyright (c) Steve Scherf et al.
# Submitted via: ExactAudioCopyFreeDBPlugin 1.0
#
DISCID=9c121c1b
DTITLE=Eddie Boyd - The Blues Is Here To Stay 1947-1959 [CD2]
DYEAR=2013
DGENRE=Blues
TTITLE0=Blues For My Baby
TTITLE1=Hard Time Getting Started
TTITLE2=Cool Kind Treatment
TTITLE3=Rosa Lee Swing
TTITLE4=24 Hours
TTITLE5=Best I Could
TTITLE6=Third Degree
TTITLE7=Picture In The Frame
TTITLE8=Nothing But Trouble
TTITLE9=Hush Baby Don't You Cry
TTITLE10=Ratting And Running Around
TTITLE11=Driftin'
TTITLE12=Got Me Seein' Double
TTITLE13=I'm A Prisoner
TTITLE14=What's The Matter Baby
TTITLE15=Life Gets To Be A Burden
TTITLE16=Just A Fool
TTITLE17=Treat Her Right
TTITLE18=Come On Home
TTITLE19=I'm Comin' Home
TTITLE20=Thank You Baby
TTITLE21=Blue Monday Blues
TTITLE22=The Blues Is Here To Stay
TTITLE23=Come Home
TTITLE24=You Got To Reap What You Sow
TTITLE25=All The Way
TTITLE26=Where You Belong
EXTD=
EXTT0=
EXTT1=
EXTT2=
EXTT3=
EXTT4=
EXTT5=
EXTT6=
EXTT7=
EXTT8=
EXTT9=
EXTT10=
EXTT11=
EXTT12=
EXTT13=
EXTT14=
EXTT15=
EXTT16=
EXTT17=
EXTT18=
EXTT19=
EXTT20=
EXTT21=
EXTT22=
EXTT23=
EXTT24=
EXTT25=
EXTT26=
PLAYORDER=
